<svg viewBox="0 0 411 155" fill="none" xmlns="http://www.w3.org/2000/svg">
<path d="M86.4682 20.5476C98.5145 45.8953 111.577 59.296 134.667 69.9364C137.726 71.3459 136.78 76.4127 133.412 76.4127H80.2885V133.053C80.2885 136.328 75.5733 137.317 74.1076 134.389C62.5326 111.261 49.0464 97.3682 22.2519 82.2893C19.5064 80.7442 20.5692 76.4127 23.7196 76.4127H80.2885V21.8347C80.2885 18.5349 85.0518 17.5673 86.4682 20.5476Z" fill="url(#paint0_linear_291_12)"/>
<path d="M182.915 97V61.3636H195.618C198.39 61.3636 200.687 61.8683 202.508 62.8775C204.329 63.8867 205.692 65.2672 206.597 67.0188C207.502 68.7589 207.955 70.7193 207.955 72.9002C207.955 75.0927 207.496 77.0647 206.58 78.8164C205.675 80.5565 204.306 81.9369 202.473 82.9577C200.652 83.967 198.361 84.4716 195.6 84.4716H186.865V79.9126H195.113C196.865 79.9126 198.286 79.611 199.376 79.0078C200.467 78.393 201.267 77.5578 201.777 76.5021C202.288 75.4465 202.543 74.2459 202.543 72.9002C202.543 71.5546 202.288 70.3597 201.777 69.3157C201.267 68.2717 200.461 67.4538 199.359 66.8622C198.268 66.2706 196.83 65.9748 195.043 65.9748H188.292V97H182.915ZM219.043 61.3636V97H213.84V61.3636H219.043ZM233.82 97.5916C232.127 97.5916 230.596 97.2784 229.227 96.652C227.858 96.014 226.773 95.0917 225.973 93.8853C225.184 92.6789 224.79 91.1998 224.79 89.4482C224.79 87.9401 225.08 86.6989 225.66 85.7244C226.24 84.75 227.023 83.9786 228.009 83.4102C228.995 82.8417 230.097 82.4125 231.315 82.1225C232.533 81.8325 233.774 81.6121 235.039 81.4613C236.639 81.2757 237.939 81.1249 238.936 81.0089C239.934 80.8813 240.659 80.6783 241.111 80.3999C241.564 80.1214 241.79 79.669 241.79 79.0426V78.9208C241.79 77.4012 241.361 76.2237 240.502 75.3885C239.655 74.5533 238.391 74.1357 236.709 74.1357C234.957 74.1357 233.577 74.5243 232.568 75.3015C231.57 76.0671 230.88 76.9197 230.497 77.8594L225.607 76.7457C226.187 75.1217 227.034 73.8108 228.148 72.8132C229.273 71.804 230.567 71.0732 232.028 70.6207C233.49 70.1567 235.027 69.9247 236.639 69.9247C237.707 69.9247 238.838 70.0523 240.032 70.3075C241.239 70.5511 242.364 71.0036 243.408 71.6648C244.464 72.326 245.328 73.2714 246.001 74.5011C246.674 75.7191 247.01 77.3026 247.01 79.2514V97H241.929V93.3459H241.72C241.384 94.0187 240.879 94.6799 240.206 95.3295C239.534 95.9792 238.669 96.5186 237.614 96.9478C236.558 97.377 235.294 97.5916 233.82 97.5916ZM234.952 93.4155C236.39 93.4155 237.62 93.1313 238.64 92.5629C239.673 91.9944 240.456 91.252 240.99 90.3356C241.535 89.4076 241.807 88.4157 241.807 87.3601V83.9148C241.622 84.1004 241.262 84.2744 240.729 84.4368C240.206 84.5876 239.609 84.721 238.936 84.837C238.263 84.9414 237.608 85.04 236.97 85.1328C236.332 85.214 235.798 85.2836 235.369 85.3416C234.36 85.4692 233.438 85.6838 232.602 85.9854C231.779 86.287 231.118 86.7221 230.619 87.2905C230.132 87.8473 229.888 88.5897 229.888 89.5178C229.888 90.8054 230.364 91.7798 231.315 92.4411C232.266 93.0907 233.478 93.4155 234.952 93.4155ZM259.143 81.1307V97H253.94V70.2727H258.934V74.6229H259.264C259.879 73.2076 260.842 72.0708 262.153 71.2124C263.475 70.3539 265.14 69.9247 267.147 69.9247C268.968 69.9247 270.563 70.3075 271.932 71.0732C273.301 71.8272 274.362 72.9524 275.116 74.4489C275.87 75.9453 276.247 77.7956 276.247 79.9996V97H271.045V80.6261C271.045 78.6888 270.54 77.175 269.531 76.0845C268.522 74.9825 267.135 74.4315 265.372 74.4315C264.166 74.4315 263.093 74.6925 262.153 75.2145C261.225 75.7365 260.488 76.5021 259.943 77.5114C259.409 78.509 259.143 79.7154 259.143 81.1307ZM294.744 97.5394C292.111 97.5394 289.843 96.9768 287.941 95.8516C286.05 94.7147 284.588 93.1197 283.556 91.0664C282.535 89.0015 282.024 86.5829 282.024 83.8104C282.024 81.0727 282.535 78.6598 283.556 76.5717C284.588 74.4837 286.027 72.8538 287.871 71.6822C289.727 70.5105 291.896 69.9247 294.379 69.9247C295.887 69.9247 297.349 70.1741 298.764 70.6729C300.179 71.1718 301.449 71.9548 302.574 73.022C303.7 74.0893 304.587 75.4755 305.237 77.1808C305.886 78.8744 306.211 80.9335 306.211 83.358V85.2024H284.965V81.3047H301.113C301.113 79.9358 300.834 78.7236 300.278 77.668C299.721 76.6007 298.938 75.7597 297.929 75.1449C296.931 74.5301 295.759 74.2227 294.414 74.2227C292.952 74.2227 291.676 74.5823 290.585 75.3015C289.507 76.0091 288.671 76.9371 288.08 78.0856C287.5 79.2224 287.21 80.4579 287.21 81.7919V84.837C287.21 86.6235 287.523 88.1431 288.149 89.396C288.787 90.6488 289.675 91.6058 290.812 92.267C291.949 92.9167 293.277 93.2415 294.796 93.2415C295.782 93.2415 296.681 93.1023 297.494 92.8239C298.306 92.5339 299.007 92.1046 299.599 91.5362C300.191 90.9678 300.643 90.266 300.956 89.4308L305.881 90.3182C305.486 91.7682 304.779 93.0385 303.758 94.1289C302.748 95.2077 301.478 96.0488 299.947 96.652C298.427 97.2436 296.693 97.5394 294.744 97.5394ZM316.891 97L307.007 61.3636H312.662L319.605 88.9609H319.936L327.157 61.3636H332.76L339.981 88.9783H340.312L347.237 61.3636H352.91L343.009 97H337.597L330.098 70.3075H329.819L322.32 97H316.891ZM357.813 61.3636H364.338L375.683 89.0653H376.101L387.446 61.3636H393.971V97H388.855V71.2124H388.525L378.015 96.9478H373.769L363.259 71.195H362.928V97H357.813V61.3636Z" fill="url(#paint1_linear_291_12)"/>
<defs>
<linearGradient id="paint0_linear_291_12" x1="80.778" y1="6.34088" x2="80.778" y2="148.445" gradientUnits="userSpaceOnUse">
<stop stop-color="#5E25FF"/>
<stop offset="1" stop-color="#FF005C"/>
</linearGradient>
<linearGradient id="paint1_linear_291_12" x1="104.405" y1="21.6667" x2="102.065" y2="145.617" gradientUnits="userSpaceOnUse">
<stop offset="0.0113314" stop-color="#6822F4"/>
<stop offset="1" stop-color="#F30267"/>
</linearGradient>
</defs>
</svg>
